<mxfile host="app.diagrams.net" modified="2023-04-08T14:02:07.464Z" agent="Mozilla/5.0 (Windows NT 10.0; Win64; x64; rv:109.0) Gecko/20100101 Firefox/111.0" etag="nobnz9JzP3ynSCw1vv9C" version="21.1.5" type="github">
  <diagram name="Page-1" id="rT2AkK05nGb7T9Rms0hV">
    <mxGraphModel dx="1434" dy="764" grid="1" gridSize="10" guides="1" tooltips="1" connect="1" arrows="1" fold="1" page="1" pageScale="1" pageWidth="850" pageHeight="1100" math="0" shadow="0">
      <root>
        <mxCell id="0" />
        <mxCell id="1" parent="0" />
        <mxCell id="UwjaHp-W4bodO4WsvOct-1" value="&lt;div&gt;CSGO&lt;/div&gt;" style="rounded=1;whiteSpace=wrap;html=1;" vertex="1" parent="1">
          <mxGeometry x="650" y="30" width="120" height="60" as="geometry" />
        </mxCell>
        <mxCell id="UwjaHp-W4bodO4WsvOct-2" value="User" style="rounded=1;whiteSpace=wrap;html=1;" vertex="1" parent="1">
          <mxGeometry x="650" y="230" width="120" height="60" as="geometry" />
        </mxCell>
        <mxCell id="UwjaHp-W4bodO4WsvOct-3" value="&lt;div&gt;SDK&lt;/div&gt;" style="rounded=1;whiteSpace=wrap;html=1;" vertex="1" parent="1">
          <mxGeometry x="40" y="200" width="120" height="60" as="geometry" />
        </mxCell>
        <mxCell id="UwjaHp-W4bodO4WsvOct-8" value="&lt;div&gt;csboost&lt;/div&gt;" style="rounded=1;whiteSpace=wrap;html=1;" vertex="1" parent="1">
          <mxGeometry x="40" y="40" width="120" height="60" as="geometry" />
        </mxCell>
        <mxCell id="UwjaHp-W4bodO4WsvOct-10" value="" style="endArrow=classic;html=1;rounded=0;entryX=0.325;entryY=-0.033;entryDx=0;entryDy=0;entryPerimeter=0;exitX=0.325;exitY=1.033;exitDx=0;exitDy=0;exitPerimeter=0;" edge="1" parent="1" source="UwjaHp-W4bodO4WsvOct-8" target="UwjaHp-W4bodO4WsvOct-3">
          <mxGeometry relative="1" as="geometry">
            <mxPoint x="70" y="110" as="sourcePoint" />
            <mxPoint x="120" y="430" as="targetPoint" />
          </mxGeometry>
        </mxCell>
        <mxCell id="UwjaHp-W4bodO4WsvOct-11" value="Request" style="edgeLabel;resizable=0;html=1;align=center;verticalAlign=middle;" connectable="0" vertex="1" parent="UwjaHp-W4bodO4WsvOct-10">
          <mxGeometry relative="1" as="geometry" />
        </mxCell>
        <mxCell id="UwjaHp-W4bodO4WsvOct-12" value="" style="endArrow=classic;html=1;rounded=0;entryX=0.825;entryY=1.05;entryDx=0;entryDy=0;entryPerimeter=0;exitX=0.825;exitY=-0.067;exitDx=0;exitDy=0;exitPerimeter=0;" edge="1" parent="1" source="UwjaHp-W4bodO4WsvOct-3" target="UwjaHp-W4bodO4WsvOct-8">
          <mxGeometry relative="1" as="geometry">
            <mxPoint x="150" y="430" as="sourcePoint" />
            <mxPoint x="150" y="110" as="targetPoint" />
          </mxGeometry>
        </mxCell>
        <mxCell id="UwjaHp-W4bodO4WsvOct-13" value="Response" style="edgeLabel;resizable=0;html=1;align=center;verticalAlign=middle;" connectable="0" vertex="1" parent="UwjaHp-W4bodO4WsvOct-12">
          <mxGeometry relative="1" as="geometry" />
        </mxCell>
      </root>
    </mxGraphModel>
  </diagram>
</mxfile>
